<svg id="Responsive" height="512" viewBox="0 0 512 512" width="512" xmlns="http://www.w3.org/2000/svg"><g fill="#57a4ff"><path d="m456 224v16a16 16 0 0 1 -16 16h-96a16 16 0 0 1 -16-16v-16z"/><path d="m496 352v32a16 16 0 0 1 -16 16h-448a16 16 0 0 1 -16-16v-32z"/><path d="m176 432h160v24h-160z"/><path d="m328 224h128v8h-128z"/><path d="m456 80v16h-128v-16a16 16 0 0 1 16-16h96a16 16 0 0 1 16 16z"/><path d="m456 224v16a16 16 0 0 1 -16 16h-96a16 16 0 0 1 -16-16v-16z"/></g><path d="m480 136h-16v-56a24.028 24.028 0 0 0 -24-24h-96a24.028 24.028 0 0 0 -24 24v56h-288a24.027 24.027 0 0 0 -24 24v224a24.027 24.027 0 0 0 24 24h173.754l-4 16h-25.754a8 8 0 0 0 -8 8v24a8 8 0 0 0 8 8h160a8 8 0 0 0 8-8v-24a8 8 0 0 0 -8-8h-25.754l-4-16h173.754a24.027 24.027 0 0 0 24-24v-224a24.027 24.027 0 0 0 -24-24zm-32 80h-112v-112h112zm-112 16h112v8a8.009 8.009 0 0 1 -8 8h-96a8.009 8.009 0 0 1 -8-8zm0-152a8.009 8.009 0 0 1 8-8h96a8.009 8.009 0 0 1 8 8v8h-112zm-312 80a8.009 8.009 0 0 1 8-8h288v88a24.028 24.028 0 0 0 24 24h96a24.028 24.028 0 0 0 24-24v-88h16a8.009 8.009 0 0 1 8 8v184h-464zm304 288h-144v-8h144zm-34.246-24h-75.508l4-16h67.508zm194.246-40a8.009 8.009 0 0 1 -8 8h-448a8.009 8.009 0 0 1 -8-8v-24h464z" fill="#004fac"/><path d="m56 384h40a8 8 0 0 0 0-16h-40a8 8 0 0 0 0 16z" fill="#004fac"/><path d="m120 384h8a8 8 0 0 0 0-16h-8a8 8 0 0 0 0 16z" fill="#004fac"/></svg>